<svg width="15" height="13" viewBox="0 0 15 13" fill="none" xmlns="http://www.w3.org/2000/svg">
<path d="M4.9375 5.4375C5.40234 5.4375 5.78516 5.84766 5.78516 6.3125C5.78516 6.80469 5.40234 7.1875 4.9375 7.1875C4.44531 7.1875 4.0625 6.80469 4.0625 6.3125C4.0625 5.84766 4.44531 5.4375 4.9375 5.4375ZM8 5.4375C8.46484 5.4375 8.84766 5.84766 8.84766 6.3125C8.84766 6.75 8.4375 7.16016 8 7.16016C7.53516 7.16016 7.125 6.77734 7.125 6.3125C7.125 5.82031 7.50781 5.4375 8 5.4375ZM11.0625 5.4375C11.5273 5.4375 11.9375 5.84766 11.9102 6.3125C11.9102 6.80469 11.5273 7.1875 11.0625 7.1875C10.5977 7.1875 10.1875 6.80469 10.1875 6.3125C10.1875 5.84766 10.5703 5.4375 11.0625 5.4375ZM8 0.625C11.8555 0.625 14.9727 3.22266 14.9727 6.33984C14.9727 9.45703 11.8555 12 8 12C7.09766 12 6.22266 11.8633 5.45703 11.6172C4.63672 12.1914 3.32422 12.875 1.65625 12.875C1.38281 12.875 1.13672 12.7383 1.05469 12.4648C0.972656 12.2188 1 11.9453 1.19141 11.7539C1.19141 11.7539 2.03906 10.8242 2.44922 9.75781C1.54688 8.80078 1 7.59766 1 6.3125C1 3.16797 4.11719 0.625 8 0.625ZM8 10.6875C11.1172 10.6875 13.6328 8.74609 13.6328 6.3125C13.6328 3.90625 11.0898 1.9375 7.97266 1.9375C4.85547 1.9375 2.3125 3.90625 2.3125 6.3125C2.3125 7.48828 2.88672 8.36328 3.37891 8.88281L3.95312 9.48438L3.65234 10.25C3.51562 10.6328 3.32422 11.0156 3.10547 11.3438C3.76172 11.125 4.30859 10.8242 4.69141 10.5508L5.21094 10.168L5.83984 10.3594C6.52344 10.5781 7.26172 10.6875 8 10.6875Z" fill="white"/>
</svg>
