<svg xmlns="http://www.w3.org/2000/svg" xmlns:xlink="http://www.w3.org/1999/xlink" aria-hidden="true" role="img" class="component-iconify MuiBox-root css-1virv8 iconify iconify--flagpack" width="1.34em" height="1em" viewBox="0 0 32 24"><defs><path id="iconifyReact2530" fill="#fff" d="M0 0h32v24H0z"></path></defs><g fill="none"><g clip-path="url(#iconifyReact2531)"><use href="#iconifyReact2530"></use><path fill="#F7FCFF" fill-rule="evenodd" d="M0 0h32v24H0V0Z" clip-rule="evenodd"></path><path fill="#E31D1C" fill-rule="evenodd" d="M0 14.667v2h32v-2H0Zm0 3.666v2h32v-2H0Zm0-11v2h32v-2H0ZM0 22v2h32v-2H0Zm0-11v2h32v-2H0ZM0 0v2h32V0H0Zm0 3.667v2h32v-2H0Z" clip-rule="evenodd"></path><path fill="#2E42A5" d="M0 0h20v13H0z"></path><path fill="#F7FCFF" fill-rule="evenodd" d="m1.722 2.939l-.726.509l.245-.906l-.645-.574h.843l.282-.74l.331.74h.718l-.564.574l.218.906l-.702-.51Zm4 0l-.726.509l.245-.906l-.644-.574h.842l.282-.74l.331.74h.718l-.564.574l.218.906l-.702-.51Zm3.274.509l.726-.51l.702.51l-.218-.906l.564-.574h-.718l-.331-.74l-.282.74h-.842l.644.574l-.245.906Zm4.726-.51l-.726.51l.245-.906l-.644-.574h.842l.282-.74l.331.74h.718l-.564.574l.218.906l-.702-.51ZM.996 7.449l.726-.51l.702.51l-.218-.906l.564-.574h-.718l-.331-.74l-.282.74H.596l.645.574l-.245.906Zm4.726-.51l-.726.51l.245-.906l-.644-.574h.842l.282-.74l.331.74h.718l-.564.574l.218.906l-.702-.51Zm3.274.51l.726-.51l.702.51l-.218-.906l.564-.574h-.718l-.331-.74l-.282.74h-.842l.644.574l-.245.906Zm4.726-.51l-.726.51l.245-.906l-.644-.574h.842l.282-.74l.331.74h.718l-.564.574l.218.906l-.702-.51ZM.996 11.449l.726-.51l.702.51l-.218-.906l.564-.574h-.718l-.331-.74l-.282.74H.596l.645.574l-.245.905Zm4.726-.51l-.726.51l.245-.906l-.644-.574h.842l.282-.74l.331.74h.718l-.564.574l.218.905l-.702-.508Zm3.274.51l.726-.51l.702.51l-.218-.906l.564-.574h-.718l-.331-.74l-.282.74h-.842l.644.574l-.245.905Zm4.726-.51l-.726.51l.245-.906l-.644-.574h.842l.282-.74l.331.74h.718l-.564.574l.218.905l-.702-.508Zm3.274-7.49l.726-.51l.702.51l-.218-.906l.564-.574h-.718l-.331-.74l-.282.74h-.843l.645.574l-.245.906Zm.726 3.49l-.726.51l.245-.906l-.645-.574h.843l.282-.74l.331.74h.718l-.564.574l.218.906l-.702-.51Zm-.726 4.51l.726-.51l.702.51l-.218-.906l.564-.574h-.718l-.331-.74l-.282.74h-.843l.645.574l-.245.905ZM3.722 4.938l-.726.51l.245-.906l-.645-.574h.843l.282-.74l.331.74h.718l-.564.574l.218.906l-.702-.51Zm3.274.51l.726-.51l.702.51l-.218-.906l.564-.574h-.718l-.331-.74l-.282.74h-.843l.645.574l-.245.906Zm4.726-.51l-.726.51l.245-.906l-.644-.574h.842l.282-.74l.331.74h.718l-.564.574l.218.906l-.702-.51Zm-8.726 4.51l.726-.51l.702.51l-.218-.906l.564-.574h-.718l-.331-.74l-.282.74h-.843l.645.574l-.245.906Zm4.726-.51l-.726.51l.245-.906l-.644-.574h.842l.282-.74l.331.74h.718l-.564.574l.218.906l-.702-.51Zm3.274.51l.726-.51l.702.51l-.218-.906l.564-.574h-.718l-.331-.74l-.282.74h-.842l.644.574l-.245.906Zm4.726-4.51l-.726.51l.245-.906l-.644-.574h.842l.282-.74l.331.74h.718l-.564.574l.218.906l-.702-.51Zm-.726 4.51l.726-.51l.702.51l-.218-.906l.564-.574h-.718l-.331-.74l-.282.74h-.842l.644.574l-.245.906Z" clip-rule="evenodd"></path></g><defs><clipPath id="iconifyReact2531"><use href="#iconifyReact2530"></use></clipPath></defs></g></svg>